# Alias OBJ Model File
# Exported from SketchUp, (c) 2000-2012 Trimble Navigation Limited
# File units = inches

mtllib heliblades.mtl

g Mesh1 Group1 Model

usemtl Color_M06
v -1.2 1.1 -25.2
vt -50.4 1.1
vn -1 0 -5.14792e-11
v -1.2 0.5 -1.2
vt -26.4 0.5
v -1.2 1.1 -1.2
vt -26.4 1.1
f 1/1/1 2/2/1 3/3/1

v -1.2 0.5 -25.2
vt -50.4 0.5
f 2/2/1 1/1/1 4/4/1

usemtl BackColor
vn 1 -0 5.14792e-11
f 3/3/2 2/2/2 1/1/2

usemtl Color_M06
v -25.2 0.5 -1.2
vt 1.23551e-09 0.5
vn 5.14795e-11 0 -1
vt -24 1.1
vt -24 0.5
f 5/5/3 3/6/3 2/7/3

v -25.2 1.1 -1.2
vt 1.23551e-09 1.1
f 3/6/3 5/5/3 6/8/3

usemtl BackColor
vn -5.14795e-11 -0 1
f 2/7/4 3/6/4 5/5/4

usemtl FrontColor
vn 5.14792e-11 8.33777e-17 -1
v 1.2 0.5 -1.2
f 3/6/5 7/2/5 2/7/5

v 0.4 1.1 -1.2
vt -25.6 1.1
f 7/2/5 3/6/5 8/9/5

usemtl BackColor
vn -5.14792e-11 -8.33777e-17 1
f 2/7/6 7/2/6 3/6/6

usemtl Color_M06
vt -24 50.4
vn 5.08015e-27 -1 -9.86865e-17
vt -26.4 26.4
vt -24 26.4
f 4/10/7 7/11/7 2/12/7

v 1.2 0.5 -25.2
vt -26.4 50.4
f 7/11/7 4/10/7 9/13/7

usemtl BackColor
vn -5.08015e-27 1 9.86865e-17
f 2/12/8 7/11/8 4/10/8

usemtl FrontColor
vt 24 26.4
vn 0 1 -0
v -1 0.5 -1
vt 24.2 26.2
vt 26.4 26.4
f 2/14/9 10/15/9 7/16/9

v -1 0.5 1
vt 24.2 24.2
f 10/15/9 2/14/9 11/17/9

usemtl Color_M04
vn -0 -1 0
f 7/16/10 10/15/10 2/14/10

usemtl FrontColor
v 1 0.5 -1
vt 26.2 26.2
f 7/16/9 10/15/9 12/18/9

usemtl Color_M04
f 12/18/10 10/15/10 7/16/10

usemtl FrontColor
v -1 0 -1
vt 24.2 0
vn -5.14793e-11 0 1
vt 26.2 0.5
vt 24.2 0.5
f 13/19/11 12/20/11 10/21/11

v 5.14788e-11 0 -1
vt 25.2 0
f 14/22/11 12/20/11 13/19/11

v 1 0 -1
vt 26.2 0
f 12/20/11 14/22/11 15/23/11

usemtl BackColor
vn 5.14793e-11 -0 -1
f 15/23/12 14/22/12 12/20/12

usemtl FrontColor
vt 25.2 26.2
v 1 0 5.14859e-11
vt 26.2 25.2
f 14/24/9 16/25/9 15/18/9

v 0 0 3.55271e-15
vt 25.2 25.2
f 16/25/9 14/24/9 17/26/9

usemtl BackColor
f 17/26/10 14/24/10 16/25/10

usemtl FrontColor
f 13/15/9 17/26/9 14/24/9

v -1 0 -5.14788e-11
vt 24.2 25.2
f 17/26/9 13/15/9 18/27/9

usemtl BackColor
f 18/27/10 13/15/10 17/26/10

usemtl FrontColor
vn 1 0 5.14809e-11
f 10/20/13 18/22/13 13/23/13

f 11/21/13 18/22/13 10/20/13

v -1 0 1
f 18/22/13 11/21/13 19/19/13

usemtl BackColor
vn -1 -0 -5.14809e-11
f 19/19/14 11/21/14 18/22/14

usemtl FrontColor
vt -24.2 0.5
vn 5.14791e-11 0 -1
v -5.14753e-11 0 1
vt -25.2 0
vt -24.2 0
f 11/28/15 20/29/15 19/30/15

v 1 0 1
vt -26.2 0
f 20/29/15 11/28/15 21/31/15

usemtl BackColor
vn -5.14791e-11 -0 1
f 19/30/16 20/29/16 11/28/16

usemtl FrontColor
vt 25.2 24.2
f 20/32/9 18/27/9 19/17/9

f 18/27/9 20/32/9 17/26/9

usemtl BackColor
f 19/17/10 18/27/10 20/32/10

f 17/26/10 20/32/10 18/27/10

usemtl FrontColor
vt 26.2 24.2
f 21/33/9 17/26/9 20/32/9

f 17/26/9 21/33/9 16/25/9

usemtl BackColor
f 20/32/10 17/26/10 21/33/10

f 16/25/10 21/33/10 17/26/10

usemtl FrontColor
vn -1 0 -5.14774e-11
vt -26.2 0.5
f 21/30/17 12/34/17 16/29/17

v 1 0.5 1
f 12/34/17 21/30/17 22/28/17

usemtl BackColor
vn 1 -0 5.14774e-11
f 22/28/18 21/30/18 12/34/18

usemtl FrontColor
f 21/31/15 11/28/15 22/34/15

usemtl BackColor
f 21/31/16 11/28/16 20/29/16

f 22/34/16 11/28/16 21/31/16

usemtl FrontColor
v 1.2 0.5 1.2
vt 26.4 24
f 11/17/9 23/35/9 22/33/9

v -1.2 0.5 1.2
vt 24 24
f 11/17/9 24/36/9 23/35/9

f 24/36/9 11/17/9 2/14/9

usemtl Color_M04
f 2/14/10 11/17/10 24/36/10

f 11/17/10 2/14/10 10/15/10

usemtl BackColor
f 10/20/14 18/22/14 11/21/14

f 13/23/14 18/22/14 10/20/14

f 10/21/12 12/20/12 13/19/12

f 13/19/12 12/20/12 14/22/12

f 14/24/10 17/26/10 13/15/10

usemtl Color_M04
f 23/35/10 24/36/10 11/17/10

usemtl Color_M06
v 1.2 0.5 25.2
vt -26.4 1.91876e-13
vn 5.85552e-24 -1 -1.13745e-13
vt -24 24
vt -26.4 24
f 25/37/19 24/38/19 23/39/19

v -1.2 0.5 25.2
vt -24 1.23741e-10
f 24/38/19 25/37/19 26/40/19

usemtl BackColor
vn -5.85552e-24 1 1.13745e-13
f 26/40/20 25/37/20 24/38/20

usemtl Color_M06
v 1.2 1.1 25.2
vt 26.4 1.1
vn -5.15152e-11 -1.13745e-13 1
vt 24 0.5
vt 26.4 0.5
f 27/41/21 26/42/21 25/43/21

v -1.2 1.1 25.2
vt 24 1.1
f 26/42/21 27/41/21 28/44/21

usemtl BackColor
vn 5.15152e-11 1.13745e-13 -1
f 25/43/22 26/42/22 27/41/22

f 28/44/22 27/41/22 26/42/22

usemtl Color_M06
vt 26.4 1.26775e-13
vn 1.99579e-16 1 1.1525e-13
v -1.2 1.1 1.2
vt 24 1.23811e-10
f 27/45/23 29/36/23 28/46/23

v -0.4 1.1 2.7
vt 24.8 22.5
f 29/36/23 27/45/23 30/47/23

usemtl BackColor
vn -1.99579e-16 -1 -1.1525e-13
f 28/46/24 29/36/24 27/45/24

usemtl Color_M06
vn -1 0 -5.15152e-11
vt -1.36005e-09 0.5
vt -1.36005e-09 1.1
f 29/6/25 26/48/25 28/49/25

f 26/48/25 29/6/25 24/7/25

usemtl BackColor
vn 1 -0 5.15152e-11
f 28/49/26 26/48/26 29/6/26

f 24/7/26 29/6/26 26/48/26

usemtl Color_M06
vn -5.14795e-11 0 1
v -25.2 0.5 1.2
vt -1.23551e-09 0.5
f 29/44/27 31/50/27 24/42/27

v -25.2 1.1 1.2
vt -1.23551e-09 1.1
f 31/50/27 29/44/27 32/51/27

usemtl BackColor
vn 5.14795e-11 -0 -1
f 24/42/28 31/50/28 29/44/28

usemtl Color_M06
vt -1.23549e-10 26.4
vn -9.86865e-16 -1 -5.08025e-26
vt 4.93432e-16 24
f 5/52/29 24/38/29 31/53/29

f 24/38/29 5/52/29 2/12/29

usemtl BackColor
vn 9.86865e-16 1 5.08025e-26
f 31/53/30 24/38/30 5/52/30

f 2/12/30 5/52/30 24/38/30

usemtl FrontColor
vn -1 9.92589e-16 -5.14795e-11
v -1.2 1.1 0.4
vt -24.8 1.1
f 24/7/31 33/54/31 2/2/31

f 33/54/31 24/7/31 29/6/31

usemtl BackColor
vn 1 -9.92589e-16 5.14795e-11
f 29/6/32 24/7/32 33/54/32

usemtl FrontColor
v 1.2 1.1 1.2
f 24/42/21 34/41/21 29/44/21

f 34/41/21 24/42/21 23/43/21

usemtl BackColor
f 23/43/22 24/42/22 34/41/22

f 23/39/20 24/38/20 25/37/20

usemtl Color_M06
vn 1 -3.16521e-14 5.15152e-11
vt 1.36014e-09 0.5
f 34/44/33 25/55/33 23/42/33

vt 1.36e-09 1.1
f 25/55/33 34/44/33 27/56/33

usemtl BackColor
vn -1 3.16521e-14 -5.15152e-11
f 27/56/34 34/44/34 25/55/34

usemtl Color_M06
v 0.4 1.1 1.2
vt 25.6 24
f 35/57/23 27/45/23 34/35/23

v 0.4 1.1 2.7
vt 25.6 22.5
f 36/58/23 27/45/23 35/57/23

f 30/47/23 27/45/23 36/58/23

usemtl BackColor
f 30/47/24 27/45/24 29/36/24

f 36/58/24 27/45/24 30/47/24

f 35/57/24 27/45/24 36/58/24

f 34/35/24 27/45/24 35/57/24

usemtl FrontColor
vt 25.6 1.1
f 29/44/21 34/41/21 35/59/21

usemtl BackColor
f 29/44/22 34/41/22 24/42/22

f 35/59/22 34/41/22 29/44/22

usemtl Color_M06
v 0.4 1.1 0.7
vt 25.6 24.5
f 34/35/9 37/60/9 35/57/9

v 0.7 1.1 0.7
vt 25.9 24.5
f 37/60/9 34/35/9 38/61/9

usemtl BackColor
f 35/57/10 37/60/10 34/35/10

usemtl Color_M03
v 0.4 1.5 0.7
vt 24.5 1.5
vn 1 4.47684e-15 5.14791e-11
vt 24.5 1.1
f 39/62/35 35/44/35 37/63/35

v 0.4 1.3 2.7
vt 22.5 1.3
f 40/64/35 35/44/35 39/62/35

vt 22.5 1.1
f 35/44/35 40/64/35 36/65/35

usemtl BackColor
vn -1 -4.47684e-15 -5.14791e-11
f 36/65/36 40/64/36 35/44/36

usemtl Color_M03
vt 25.6 1.3
vn -5.14783e-11 0 1
vt 24.8 1.1
f 40/66/37 30/67/37 36/59/37

v -0.4 1.3 2.7
vt 24.8 1.3
f 30/67/37 40/66/37 41/68/37

usemtl BackColor
vn 5.14783e-11 -0 -1
f 36/59/38 30/67/38 40/66/38

usemtl FrontColor
v -0.4 1.1 1.2
vt 24.8 24
f 36/58/9 42/69/9 30/47/9

f 42/69/9 36/58/9 35/57/9

usemtl BackColor
f 30/47/10 42/69/10 36/58/10

usemtl Color_M06
f 42/69/23 29/36/23 30/47/23

usemtl BackColor
f 30/47/24 29/36/24 42/69/24

usemtl Color_M06
vt 24 24.8
f 42/69/9 33/70/9 29/36/9

v -0.7 1.1 0.7
vt 24.5 24.5
f 33/70/9 42/69/9 43/71/9

usemtl BackColor
f 29/36/10 33/70/10 42/69/10

usemtl Color_M06
v -2.7 1.1 0.4
vt 22.5 24.8
vn 9.99568e-16 1 -1.73095e-18
f 44/72/39 29/36/39 33/70/39

vt 1.23548e-10 26.4
f 6/73/39 29/36/39 44/72/39

vt -1.09953e-15 24
f 29/36/39 6/73/39 32/74/39

usemtl BackColor
vn -9.99568e-16 -1 1.73095e-18
f 32/74/40 6/73/40 29/36/40

usemtl Color_M06
f 6/3/31 31/7/31 32/6/31

f 31/7/31 6/3/31 5/2/31

usemtl BackColor
f 32/6/32 31/7/32 6/3/32

f 32/51/28 29/44/28 31/50/28

f 5/2/32 6/3/32 31/7/32

f 6/8/4 5/5/4 3/6/4

usemtl Color_M06
v -2.7 1.1 -0.4
vt 22.5 25.6
f 6/73/39 45/75/39 3/14/39

f 45/75/39 6/73/39 44/72/39

usemtl BackColor
f 3/14/40 45/75/40 6/73/40

usemtl Color_M06
v -1.2 1.1 -0.4
vt 24 25.6
f 3/14/39 45/75/39 46/76/39

usemtl BackColor
f 46/76/40 45/75/40 3/14/40

usemtl Color_M03
v -2.7 1.3 -0.4
vt -22.5 1.3
vn 5.14793e-11 2.94882e-16 -1
vt -22.5 1.1
f 47/77/41 46/6/41 45/78/41

v -0.7 1.1 -0.4
vt -24.5 1.1
f 46/6/41 47/77/41 48/79/41

usemtl BackColor
vn -5.14793e-11 -2.94882e-16 1
f 45/78/42 46/6/42 47/77/42

usemtl FrontColor
f 45/75/9 33/70/9 46/76/9

f 33/70/9 45/75/9 44/72/9

usemtl BackColor
f 44/72/10 45/75/10 33/70/10

f 44/72/40 6/73/40 45/75/40

f 44/72/40 29/36/40 6/73/40

f 33/70/40 29/36/40 44/72/40

usemtl Color_M03
vn -5.14792e-11 1.87652e-16 1
v -0.7 1.5 0.4
f 33/44/43 49/62/43 44/65/43

v -0.7 1.1 0.4
f 49/62/43 33/44/43 50/63/43

usemtl BackColor
vn 5.14792e-11 -1.87652e-16 -1
f 50/63/44 33/44/44 49/62/44

usemtl FrontColor
vt -24 25.6
vn 0 -1 -0
vt -24.5 24.8
vt -24 24.8
f 46/80/45 50/81/45 33/82/45

vt -24.5 25.6
f 50/81/45 46/80/45 48/83/45

usemtl BackColor
vn -0 1 0
f 33/82/46 50/81/46 46/80/46

usemtl Color_M06
vt 24.5 24.8
f 50/84/9 33/70/9 43/71/9

usemtl BackColor
f 43/71/10 33/70/10 50/84/10

f 43/71/10 42/69/10 33/70/10

usemtl Color_M06
v -0.4 1.1 0.7
vt 24.8 24.5
f 43/71/9 42/69/9 51/85/9

usemtl BackColor
f 51/85/10 42/69/10 43/71/10

usemtl Color_M03
vn -1 -6.99674e-15 -5.14794e-11
v -0.4 1.5 0.7
vt -24.5 1.5
f 42/6/47 52/86/47 51/79/47

f 30/78/47 52/86/47 42/6/47

f 52/86/47 30/78/47 41/77/47

usemtl BackColor
vn 1 6.99674e-15 5.14794e-11
f 41/77/48 30/78/48 52/86/48

f 41/68/38 40/66/38 30/67/38

usemtl Color_M03
vt 25.6 22.5177
vn -5.12234e-12 0.995037 0.0995037
vt 24.8 24.5277
vt 24.8 22.5177
f 40/87/49 52/88/49 41/89/49

vt 25.6 24.5277
f 52/88/49 40/87/49 39/90/49

usemtl BackColor
vn 5.12234e-12 -0.995037 -0.0995037
f 41/89/50 52/88/50 40/87/50

f 39/90/50 40/87/50 52/88/50

f 39/62/36 35/44/36 40/64/36

f 37/63/36 35/44/36 39/62/36

usemtl FrontColor
vt -25.6 24
vt -24.8 24.5
vt -25.6 24.5
f 35/91/45 51/92/45 37/93/45

vt -24.8 24
f 51/92/45 35/91/45 42/94/45

usemtl BackColor
f 42/94/46 35/91/46 51/92/46

usemtl FrontColor
f 29/44/21 35/59/21 42/67/21

usemtl BackColor
f 42/67/22 35/59/22 29/44/22

f 35/57/10 36/58/10 42/69/10

f 37/93/46 51/92/46 35/91/46

f 51/79/48 52/86/48 42/6/48

usemtl Color_M04
vt 24.8 1.5
vn -5.14789e-11 0 1
f 52/95/51 43/63/51 51/67/51

v -0.7 1.8 0.7
vt 24.5 1.8
f 43/63/51 52/95/51 53/96/51

usemtl BackColor
vn 5.14789e-11 -0 -1
f 51/67/52 43/63/52 52/95/52

f 53/96/52 52/95/52 43/63/52

usemtl Color_M04
v 0.7 1.8 0.7
vt 25.9 1.8
f 53/96/51 52/95/51 54/97/51

usemtl BackColor
f 54/97/52 52/95/52 53/96/52

usemtl Color_M04
vt 25.6 1.5
f 39/98/51 54/97/51 52/95/51

f 37/59/51 54/97/51 39/98/51

vt 25.9 1.1
f 54/97/51 37/59/51 38/99/51

usemtl BackColor
f 38/99/52 37/59/52 54/97/52

f 38/61/10 34/35/10 37/60/10

usemtl Color_M06
v 0.7 1.1 0.4
vt 25.9 24.8
f 38/61/9 34/35/9 55/100/9

usemtl BackColor
f 55/100/10 34/35/10 38/61/10

usemtl Color_M06
v 1.2 1.1 0.4
vt 26.4 24.8
f 55/100/9 34/35/9 56/101/9

usemtl BackColor
f 56/101/10 34/35/10 55/100/10

usemtl FrontColor
vn 1 -1.76027e-14 5.14748e-11
f 23/42/53 56/67/53 34/44/53

f 56/67/53 23/42/53 7/43/53

usemtl BackColor
vn -1 1.76027e-14 -5.14748e-11
f 34/44/54 56/67/54 23/42/54

usemtl Color_M06
v 24.2 1.1 1.2
vt 49.4 24
vn 1.83808e-14 1 8.35068e-15
f 57/102/55 56/101/55 34/35/55

v 2.7 1.1 0.4
vt 27.9 24.8
f 56/101/55 57/102/55 58/103/55

usemtl BackColor
vn -1.83808e-14 -1 -8.35068e-15
f 34/35/56 56/101/56 57/102/56

f 58/103/56 57/102/56 56/101/56

usemtl Color_M06
v 2.7 1.1 -0.4
vt 27.9 25.6
f 58/103/55 57/102/55 59/104/55

usemtl BackColor
f 59/104/56 57/102/56 58/103/56

usemtl Color_M06
v 24.2 1.1 -1.2
vt 49.4 26.4
f 60/105/55 59/104/55 57/102/55

v 1.2 1.1 -1.2
f 61/16/55 59/104/55 60/105/55

v 1.2 1.1 -0.4
vt 26.4 25.6
f 59/104/55 61/16/55 62/106/55

usemtl BackColor
f 62/106/56 61/16/56 59/104/56

usemtl Color_M06
vn -4.84282e-14 1 -8.00535e-14
v 0.7 1.1 -0.7
vt 25.9 25.9
f 61/16/57 63/107/57 62/106/57

vt 25.6 26.4
f 8/108/57 63/107/57 61/16/57

v 0.4 1.1 -0.7
vt 25.6 25.9
f 63/107/57 8/108/57 64/109/57

usemtl BackColor
vn 4.84282e-14 -1 8.00535e-14
f 64/109/58 8/108/58 63/107/58

usemtl FrontColor
vt -25.6 25.9
vn -2.22045e-14 -1 -1.14303e-24
v -0.4 1.1 -1.2
vt -24.8 26.4
vt -25.6 26.4
f 64/110/59 65/111/59 8/112/59

v -0.4 1.1 -0.7
vt -24.8 25.9
f 65/111/59 64/110/59 66/113/59

usemtl BackColor
vn 2.22045e-14 1 1.14303e-24
f 66/113/60 64/110/60 65/111/60

f 8/112/60 65/111/60 64/110/60

usemtl FrontColor
vn 2.22045e-14 1 1.14306e-24
v -0.4 1.1 -2.7
vt 24.8 27.9
vt 24.8 26.4
f 8/108/61 67/114/61 65/115/61

v 0.4 1.1 -2.7
vt 25.6 27.9
f 67/114/61 8/108/61 68/116/61

usemtl BackColor
vn -2.22045e-14 -1 -1.14306e-24
f 65/115/62 67/114/62 8/108/62

usemtl Color_M06
vt 24 50.4
vn 2.18961e-15 1 2.54819e-16
f 1/117/63 65/115/63 67/114/63

f 65/115/63 1/117/63 3/14/63

usemtl BackColor
vn -2.18961e-15 -1 -2.54819e-16
f 3/14/64 1/117/64 65/115/64

f 67/114/64 65/115/64 1/117/64

usemtl Color_M03
vn -1 -3.19008e-15 -5.14782e-11
v -0.4 1.3 -2.7
vt -27.9 1.3
vt -27.9 1.1
f 65/3/65 69/118/65 67/119/65

vt -25.9 1.1
f 66/120/65 69/118/65 65/3/65

v -0.4 1.5 -0.7
vt -25.9 1.5
f 69/118/65 66/120/65 70/121/65

usemtl BackColor
vn 1 3.19008e-15 5.14782e-11
f 70/121/66 66/120/66 69/118/66

usemtl Color_M04
vn 5.15162e-11 -5.4002e-14 -1
v -0.7 1.8 -0.7
vt -24.5 1.8
vt -24.8 1.5
f 66/54/67 71/122/67 70/123/67

v -0.7 1.1 -0.7
f 71/122/67 66/54/67 72/79/67

usemtl BackColor
vn -5.15162e-11 5.4002e-14 1
f 72/79/68 66/54/68 71/122/68

usemtl Color_M06
vt 24.5 25.9
vt 24.8 25.9
f 65/115/9 72/124/9 66/125/9

f 3/14/9 72/124/9 65/115/9

vt 24.5 25.6
f 3/14/9 48/126/9 72/124/9

f 48/126/9 3/14/9 46/76/9

usemtl BackColor
f 46/76/10 3/14/10 48/126/10

usemtl FrontColor
f 2/2/31 46/9/31 3/3/31

f 2/2/31 33/54/31 46/9/31

usemtl BackColor
f 2/2/32 33/54/32 24/7/32

f 46/9/32 33/54/32 2/2/32

f 46/76/10 33/70/10 45/75/10

f 3/3/32 46/9/32 2/2/32

f 72/124/10 48/126/10 3/14/10

usemtl Color_M04
vn -1 2.7875e-18 -5.14695e-11
vt -25.9 1.8
f 48/9/69 71/127/69 72/120/69

v -0.7 1.5 -0.4
vt -25.6 1.5
f 73/128/69 71/127/69 48/9/69

v -0.7 1.8 -3.59925e-11
vt -25.2 1.8
f 73/128/69 74/129/69 71/127/69

f 49/123/69 74/129/69 73/128/69

f 49/123/69 53/122/69 74/129/69

f 53/122/69 49/123/69 43/79/69

usemtl BackColor
vn 1 -2.7875e-18 5.14695e-11
f 43/79/70 49/123/70 53/122/70

usemtl Color_M04
f 50/54/69 43/79/69 49/123/69

usemtl BackColor
f 49/123/70 43/79/70 50/54/70

f 74/129/70 53/122/70 49/123/70

usemtl Color_M04
v -3.60245e-11 1.8 0.7
vt 25.2 24.5
vt 24.5 25.2
f 75/130/9 74/131/9 53/71/9

v 7.10543e-15 1.8 4.61853e-14
f 74/131/9 75/130/9 76/26/9

usemtl BackColor
f 53/71/10 74/131/10 75/130/10

f 76/26/10 75/130/10 74/131/10

usemtl Color_M04
f 54/61/9 76/26/9 75/130/9

v 0.7 1.8 3.60707e-11
vt 25.9 25.2
f 76/26/9 54/61/9 77/132/9

usemtl BackColor
f 75/130/10 76/26/10 54/61/10

f 77/132/10 54/61/10 76/26/10

usemtl Color_M04
vn 1 -1.84289e-15 5.14806e-11
v 0.7 1.5 0.4
vt 25.2 1.8
f 54/96/71 78/95/71 77/133/71

f 54/96/71 55/67/71 78/95/71

f 55/67/71 54/96/71 38/63/71

usemtl BackColor
vn -1 1.84289e-15 -5.14806e-11
f 38/63/72 54/96/72 55/67/72

f 78/95/72 55/67/72 54/96/72

usemtl Color_M03
vn -5.14791e-11 -6.70186e-17 1
v 2.7 1.3 0.4
vt 27.9 1.3
vt 25.9 1.5
f 55/99/73 79/134/73 78/135/73

f 56/41/73 79/134/73 55/99/73

vt 27.9 1.1
f 79/134/73 56/41/73 58/136/73

usemtl BackColor
vn 5.14791e-11 6.70186e-17 -1
f 58/136/74 56/41/74 79/134/74

usemtl FrontColor
vn -4.34364e-24 1 8.43769e-14
f 58/103/75 62/106/75 56/101/75

f 62/106/75 58/103/75 59/104/75

usemtl BackColor
vn 4.34364e-24 -1 -8.43769e-14
f 56/101/76 62/106/76 58/103/76

usemtl FrontColor
f 56/67/53 7/43/53 62/59/53

usemtl BackColor
f 7/43/54 23/42/54 56/67/54

usemtl Color_M06
vn -1.75662e-14 -1 -9.04259e-25
v 24.2 0.5 1.2
vt -49.4 24
f 7/11/77 80/137/77 23/39/77

v 24.2 0.5 -1.2
vt -49.4 26.4
f 80/137/77 7/11/77 81/138/77

usemtl BackColor
vn 1.75662e-14 1 9.04259e-25
f 23/39/78 80/137/78 7/11/78

usemtl Color_M06
vt 49.4 1.1
vn -5.14748e-11 -2.2774e-13 1
vt 49.4 0.5
f 57/139/79 23/43/79 80/140/79

f 23/43/79 57/139/79 34/41/79

usemtl BackColor
vn 5.14748e-11 2.2774e-13 -1
f 80/140/80 23/43/80 57/139/80

f 34/41/80 57/139/80 23/43/80

f 23/42/34 25/55/34 34/44/34

usemtl Color_M06
f 80/42/53 60/41/53 57/44/53

f 60/41/53 80/42/53 81/43/53

usemtl BackColor
f 57/44/54 60/41/54 80/42/54

f 57/102/56 59/104/56 60/105/56

f 60/105/56 59/104/56 61/16/56

usemtl Color_M06
vt -49.4 1.1
vn 5.14748e-11 0 -1
f 60/141/81 7/2/81 61/3/81

vt -49.4 0.5
f 7/2/81 60/141/81 81/142/81

usemtl BackColor
vn -5.14748e-11 -0 1
f 81/142/82 60/141/82 7/2/82

f 81/43/54 80/42/54 60/41/54

f 81/138/78 7/11/78 80/137/78

f 61/3/82 7/2/82 60/141/82

usemtl FrontColor
f 62/59/53 7/43/53 61/41/53

usemtl BackColor
f 62/59/54 7/43/54 56/67/54

f 61/41/54 7/43/54 62/59/54

usemtl Color_M06
vt 50.4 0.5
vn 1 0 5.14792e-11
f 9/143/83 61/41/83 7/43/83

v 1.2 1.1 -25.2
vt 50.4 1.1
f 61/41/83 9/143/83 82/144/83

usemtl BackColor
vn -1 -0 -5.14792e-11
f 7/43/84 61/41/84 9/143/84

usemtl FrontColor
f 61/3/5 7/2/5 8/9/5

usemtl BackColor
f 8/9/6 7/2/6 61/3/6

f 8/9/6 3/6/6 7/2/6

usemtl FrontColor
f 8/9/5 3/6/5 65/54/5

usemtl BackColor
f 65/54/6 3/6/6 8/9/6

f 65/115/10 72/124/10 3/14/10

f 66/125/10 72/124/10 65/115/10

f 65/3/66 69/118/66 66/120/66

f 67/119/66 69/118/66 65/3/66

usemtl Color_M03
v 0.4 1.3 -2.7
vt -25.6 1.3
vn 5.14794e-11 -3.41404e-18 -1
vt -24.8 1.3
f 83/145/85 67/54/85 69/146/85

f 67/54/85 83/145/85 68/9/85

usemtl BackColor
vn -5.14794e-11 3.41404e-18 1
f 68/9/86 83/145/86 67/54/86

usemtl Color_M03
vn 1 -4.48354e-15 5.14791e-11
f 83/134/87 8/41/87 68/136/87

v 0.4 1.5 -0.7
f 84/135/87 8/41/87 83/134/87

f 8/41/87 84/135/87 64/99/87

usemtl BackColor
vn -1 4.48354e-15 -5.14791e-11
f 64/99/88 84/135/88 8/41/88

usemtl Color_M04
f 84/128/67 63/120/67 64/9/67

v 0.7 1.8 -0.7
f 63/120/67 84/128/67 85/127/67

usemtl BackColor
f 64/9/68 63/120/68 84/128/68

f 85/127/68 84/128/68 63/120/68

usemtl Color_M04
f 85/127/67 84/128/67 70/123/67

usemtl BackColor
f 70/123/68 84/128/68 85/127/68

usemtl Color_M03
vt -25.6 -25.6222
vn 5.13786e-12 0.995037 -0.0995037
vt -24.8 -27.6322
vt -24.8 -25.6222
f 84/147/89 69/148/89 70/149/89

vt -25.6 -27.6322
f 69/148/89 84/147/89 83/150/89

usemtl BackColor
vn -5.13786e-12 -0.995037 0.0995037
f 70/149/90 69/148/90 84/147/90

f 83/150/90 84/147/90 69/148/90

f 83/134/88 8/41/88 84/135/88

f 68/136/88 8/41/88 83/134/88

usemtl Color_M06
f 61/16/63 68/116/63 8/108/63

vt 26.4 50.4
f 82/151/63 68/116/63 61/16/63

f 82/151/63 67/114/63 68/116/63

f 1/117/63 67/114/63 82/151/63

usemtl BackColor
f 82/151/64 67/114/64 1/117/64

f 68/116/64 67/114/64 82/151/64

f 68/116/62 8/108/62 67/114/62

f 8/108/64 68/116/64 61/16/64

f 61/16/64 68/116/64 82/151/64

f 82/144/84 9/143/84 61/41/84

usemtl Color_M06
f 9/2/5 1/6/5 82/3/5

f 1/6/5 9/2/5 4/7/5

usemtl BackColor
f 4/7/6 9/2/6 1/6/6

f 9/13/8 4/10/8 7/11/8

f 82/3/6 1/6/6 9/2/6

f 4/4/2 1/1/2 2/2/2

f 61/16/58 63/107/58 8/108/58

f 62/106/58 63/107/58 61/16/58

usemtl Color_M06
v 0.7 1.1 -0.4
vt 25.9 25.6
f 62/106/57 63/107/57 86/152/57

usemtl BackColor
f 86/152/58 63/107/58 62/106/58

usemtl Color_M04
v 0.7 1.5 -0.4
f 63/99/71 87/98/71 86/59/71

f 85/97/71 87/98/71 63/99/71

f 77/133/71 87/98/71 85/97/71

f 77/133/71 78/95/71 87/98/71

usemtl BackColor
f 77/133/72 78/95/72 54/96/72

f 87/98/72 78/95/72 77/133/72

usemtl Color_M03
vt 24.8 -27.6322
vn 0.0995037 0.995037 5.21622e-12
vt 25.6 -25.6222
vt 24.8 -25.6222
f 79/153/91 87/154/91 78/155/91

v 2.7 1.3 -0.4
vt 25.6 -27.6322
f 87/154/91 79/153/91 88/156/91

usemtl BackColor
vn -0.0995037 -0.995037 -5.21622e-12
f 78/155/92 87/154/92 79/153/92

f 88/156/92 79/153/92 87/154/92

usemtl Color_M03
vn 1 -5.89577e-15 5.14528e-11
f 79/68/93 59/59/93 88/66/93

f 59/59/93 79/68/93 58/67/93

usemtl BackColor
vn -1 5.89577e-15 -5.14528e-11
f 58/67/94 79/68/94 59/59/94

f 88/66/94 59/59/94 79/68/94

usemtl Color_M03
vn 5.14592e-11 -4.06293e-13 -1
f 59/119/95 87/121/95 88/118/95

f 62/3/95 87/121/95 59/119/95

f 87/121/95 62/3/95 86/120/95

usemtl BackColor
vn -5.14592e-11 4.06293e-13 1
f 86/120/96 62/3/96 87/121/96

usemtl FrontColor
vt -26.4 24.8
vt -25.9 25.6
vt -26.4 25.6
f 56/157/76 86/158/76 62/159/76

vt -25.9 24.8
f 86/158/76 56/157/76 55/160/76

usemtl BackColor
f 55/160/75 56/157/75 86/158/75

f 55/99/74 79/134/74 56/41/74

f 78/135/74 79/134/74 55/99/74

f 62/159/75 86/158/75 56/157/75

f 59/119/96 87/121/96 62/3/96

f 88/118/96 87/121/96 59/119/96

f 59/104/76 58/103/76 62/106/76

f 86/59/72 87/98/72 63/99/72

f 63/99/72 87/98/72 85/97/72

f 85/97/72 87/98/72 77/133/72

usemtl Color_M04
v 3.60387e-11 1.8 -0.7
vt 25.2 25.9
f 89/161/9 77/132/9 85/107/9

f 77/132/9 89/161/9 76/26/9

usemtl BackColor
f 76/26/10 89/161/10 77/132/10

usemtl Color_M04
f 71/124/9 76/26/9 89/161/9

f 76/26/9 71/124/9 74/131/9

usemtl BackColor
f 74/131/10 71/124/10 76/26/10

f 71/127/70 74/129/70 73/128/70

f 73/128/70 74/129/70 49/123/70

usemtl Color_M03
vt -25.6 22.5177
vn -0.0995037 0.995037 -5.12034e-12
vt -24.8 24.5277
vt -25.6 24.5277
f 47/162/97 49/163/97 73/164/97

v -2.7 1.3 0.4
vt -24.8 22.5177
f 49/163/97 47/162/97 90/165/97

usemtl BackColor
vn 0.0995037 -0.995037 5.12034e-12
f 90/165/98 47/162/98 49/163/98

usemtl Color_M03
vn -1 0 -5.14543e-11
f 47/145/99 44/54/99 90/146/99

f 44/54/99 47/145/99 45/9/99

usemtl BackColor
vn 1 -0 5.14543e-11
f 90/146/100 44/54/100 47/145/100

usemtl Color_M03
f 44/65/43 49/62/43 90/64/43

usemtl BackColor
f 44/65/44 49/62/44 33/44/44

f 90/64/44 49/62/44 44/65/44

f 45/9/100 47/145/100 44/54/100

f 73/164/98 49/163/98 47/162/98

usemtl Color_M03
f 48/79/41 47/77/41 73/86/41

usemtl BackColor
f 48/79/42 47/77/42 46/6/42

f 73/86/42 47/77/42 48/79/42

f 48/9/70 71/127/70 73/128/70

f 72/120/70 71/127/70 48/9/70

f 48/83/46 46/80/46 50/81/46

f 89/161/10 76/26/10 71/124/10

usemtl Color_M04
f 85/127/67 71/122/67 89/129/67

f 85/127/67 70/123/67 71/122/67

usemtl BackColor
f 71/122/68 70/123/68 85/127/68

f 70/123/68 71/122/68 66/54/68

f 89/129/68 71/122/68 85/127/68

f 85/107/10 77/132/10 89/161/10

f 69/146/86 67/54/86 83/145/86

usemtl FrontColor
f 7/16/9 12/18/9 23/35/9

usemtl Color_M04
f 23/35/10 12/18/10 7/16/10

usemtl FrontColor
f 22/33/9 23/35/9 12/18/9

usemtl Color_M04
f 22/33/10 23/35/10 11/17/10

f 12/18/10 23/35/10 22/33/10

f 53/96/51 54/97/51 75/133/51

usemtl BackColor
f 75/133/52 54/97/52 53/96/52

f 39/98/52 54/97/52 37/59/52

f 52/95/52 54/97/52 39/98/52

f 42/6/48 52/86/48 30/78/48

f 16/29/18 12/34/18 21/30/18

usemtl FrontColor
f 16/29/17 12/34/17 15/31/17

usemtl BackColor
f 15/31/18 12/34/18 16/29/18

f 15/18/10 16/25/10 14/24/10

